<svg width="80" height="80" fill="none" xmlns="http://www.w3.org/2000/svg"><path d="M40 70.476c16.831 0 30.476-13.645 30.476-30.476S56.831 9.524 40 9.524 9.524 23.169 9.524 40 23.169 70.476 40 70.476z" fill="url(#prefix__paint0_radial)"/><path opacity=".5" d="M40 70.476c16.831 0 30.476-13.645 30.476-30.476S56.831 9.524 40 9.524 9.524 23.169 9.524 40 23.169 70.476 40 70.476z" fill="url(#prefix__paint1_radial)"/><path d="M33.238 23.848c-.076-1.22-1.429-1.905-3.695-1.791-1.924.114-6.096 1.41-8.8 5.314-.496.724.343 1.048.857.572 1.714-1.62 6.4-3.848 10.171-3.657 1.505.114 1.467-.439 1.467-.439z" fill="url(#prefix__paint2_linear)"/><path d="M40 61.238c4.093 0 7.41-2.694 7.41-6.019 0-3.324-3.317-6.019-7.41-6.019-4.092 0-7.41 2.695-7.41 6.02 0 3.324 3.318 6.018 7.41 6.018z" fill="url(#prefix__paint3_radial)"/><path d="M40 51.048c3.2 0 5.98 1.447 7.39 3.6C47.047 51.6 43.867 49.2 40 49.2c-3.867 0-7.029 2.4-7.39 5.448 1.409-2.134 4.19-3.6 7.39-3.6z" fill="url(#prefix__paint4_linear)"/><path d="M35.543 40.686l-5.028-4.038 4.038-5.029c.4-.495.304-1.2-.172-1.6l-.438-.362c-.495-.4-1.2-.305-1.6.172l-4.038 5.028-5.029-4.038c-.495-.4-1.2-.305-1.6.172l-.361.438c-.4.495-.305 1.2.17 1.6l5.03 4.038-4.039 5.028c-.4.495-.304 1.2.172 1.6l.438.362c.495.4 1.2.305 1.6-.171l4.038-5.029 5.029 4.038c.495.4 1.2.305 1.6-.171l.361-.438c.4-.495.324-1.22-.17-1.6z" fill="url(#prefix__paint5_radial)"/><path d="M21.39 32.038l.362-.4a1.201 1.201 0 011.6-.171l4.972 3.6 4.076-4.59a1.201 1.201 0 011.6-.172l.438.323a.889.889 0 01.343.458c.057-.381-.095-.781-.42-1.029l-.437-.362c-.495-.4-1.2-.305-1.6.172l-4.038 5.028-5.029-4.038c-.495-.4-1.2-.305-1.6.172l-.362.438a1.113 1.113 0 00-.171 1.104c.057-.19.133-.362.266-.533z" fill="url(#prefix__paint6_linear)"/><path d="M46.762 23.848c.076-1.22 1.428-1.905 3.695-1.791 1.924.114 6.095 1.41 8.8 5.314.495.724-.343 1.048-.857.572-1.715-1.62-6.4-3.848-10.172-3.657-1.505.114-1.466-.439-1.466-.439z" fill="url(#prefix__paint7_linear)"/><path d="M44.457 40.686l5.028-4.038-4.038-5.029c-.4-.495-.305-1.2.172-1.6l.438-.362c.495-.4 1.2-.305 1.6.172l4.038 5.028 5.028-4.038c.496-.4 1.2-.305 1.6.172l.362.438c.4.495.305 1.2-.171 1.6l-5.029 4.038 4.038 5.028c.4.495.305 1.2-.171 1.6l-.438.362c-.495.4-1.2.305-1.6-.171l-4.038-5.029-5.029 4.038c-.495.4-1.2.305-1.6-.171l-.362-.438c-.4-.495-.323-1.22.172-1.6z" fill="url(#prefix__paint8_radial)"/><path d="M58.609 32.038l-.362-.4a1.201 1.201 0 00-1.6-.171l-4.971 3.6-4.077-4.59a1.201 1.201 0 00-1.6-.172l-.438.323a.89.89 0 00-.343.458c-.057-.381.096-.781.42-1.029l.438-.362c.495-.4 1.2-.305 1.6.172l4.038 5.028 5.028-4.038c.495-.4 1.2-.305 1.6.172l.362.438c.267.323.305.742.172 1.104a1.56 1.56 0 00-.267-.533z" fill="url(#prefix__paint9_linear)"/><defs><radialGradient id="prefix__paint0_radial" cx="0" cy="0" r="1" gradientUnits="userSpaceOnUse" gradientTransform="translate(34.004 27.649) scale(36.7656)"><stop stop-color="#FFE030"/><stop offset="1" stop-color="#FFB92E"/></radialGradient><radialGradient id="prefix__paint1_radial" cx="0" cy="0" r="1" gradientUnits="userSpaceOnUse" gradientTransform="translate(34.004 27.649) scale(28.9251)"><stop stop-color="#FFEA5F"/><stop offset="1" stop-color="#FFBC47" stop-opacity="0"/></radialGradient><radialGradient id="prefix__paint3_radial" cx="0" cy="0" r="1" gradientUnits="userSpaceOnUse" gradientTransform="rotate(70.354 -19.648 55.836) scale(7.43838 5.70601)"><stop offset=".001" stop-color="#7A4400"/><stop offset="1" stop-color="#643800"/></radialGradient><radialGradient id="prefix__paint5_radial" cx="0" cy="0" r="1" gradientUnits="userSpaceOnUse" gradientTransform="matrix(.95555 8.66927 -6.12168 .67475 28.757 37.225)"><stop offset=".001" stop-color="#7A4400"/><stop offset="1" stop-color="#643800"/></radialGradient><radialGradient id="prefix__paint8_radial" cx="0" cy="0" r="1" gradientUnits="userSpaceOnUse" gradientTransform="matrix(-.95556 8.66927 -6.12168 -.67476 51.243 37.225)"><stop offset=".001" stop-color="#7A4400"/><stop offset="1" stop-color="#643800"/></radialGradient><linearGradient id="prefix__paint2_linear" x1="26.96" y1="26.246" x2="26.78" y2="23.04" gradientUnits="userSpaceOnUse"><stop offset=".001" stop-color="#3C2200"/><stop offset="1" stop-color="#7A4400"/></linearGradient><linearGradient id="prefix__paint4_linear" x1="40" y1="46.364" x2="40" y2="56.169" gradientUnits="userSpaceOnUse"><stop offset=".001" stop-color="#3C2200"/><stop offset="1" stop-color="#512D00"/></linearGradient><linearGradient id="prefix__paint6_linear" x1="21.194" y1="33.293" x2="34.903" y2="31.783" gradientUnits="userSpaceOnUse"><stop offset=".001" stop-color="#3C2200"/><stop offset="1" stop-color="#512D00"/></linearGradient><linearGradient id="prefix__paint7_linear" x1="53.039" y1="26.246" x2="53.219" y2="23.04" gradientUnits="userSpaceOnUse"><stop offset=".001" stop-color="#3C2200"/><stop offset="1" stop-color="#7A4400"/></linearGradient><linearGradient id="prefix__paint9_linear" x1="58.806" y1="33.293" x2="45.097" y2="31.782" gradientUnits="userSpaceOnUse"><stop offset=".001" stop-color="#3C2200"/><stop offset="1" stop-color="#512D00"/></linearGradient></defs></svg>