<svg width="80" height="80" fill="none" xmlns="http://www.w3.org/2000/svg"><path d="M40.475 70.95c16.83 0 30.475-13.644 30.475-30.475C70.95 23.645 57.306 10 40.475 10 23.645 10 10 23.644 10 40.475c0 16.83 13.644 30.475 30.475 30.475z" fill="url(#prefix__paint0_radial)"/><path opacity=".5" d="M40.475 70.95c16.83 0 30.475-13.644 30.475-30.475C70.95 23.645 57.306 10 40.475 10 23.645 10 10 23.644 10 40.475c0 16.83 13.644 30.475 30.475 30.475z" fill="url(#prefix__paint1_radial)"/><path d="M33.77 24.685c0-1.22-1.318-1.985-3.586-1.985-1.927 0-6.166 1.063-9.085 4.82-.54.694.283 1.077.822.623 1.8-1.53 6.605-3.487 10.361-3.076 1.503.17 1.489-.382 1.489-.382z" fill="url(#prefix__paint2_linear)"/><path d="M30.525 39.497c1.62 0 2.934-1.986 2.934-4.437 0-2.45-1.314-4.436-2.934-4.436S27.59 32.61 27.59 35.06s1.313 4.437 2.934 4.437z" fill="url(#prefix__paint3_radial)"/><path d="M30.525 32.112c1.261 0 2.353 1.091 2.934 2.722-.043-2.396-1.333-4.324-2.934-4.324-1.602 0-2.892 1.928-2.934 4.324.58-1.616 1.672-2.722 2.934-2.722z" fill="url(#prefix__paint4_linear)"/><path d="M47.18 24.685c0-1.22 1.318-1.985 3.586-1.985 1.927 0 6.166 1.063 9.085 4.82.539.694-.283 1.077-.822.623-1.8-1.53-6.605-3.487-10.361-3.076-1.503.17-1.489-.382-1.489-.382z" fill="url(#prefix__paint5_linear)"/><path d="M50.426 39.497c1.62 0 2.934-1.986 2.934-4.437 0-2.45-1.314-4.436-2.934-4.436s-2.934 1.986-2.934 4.436 1.313 4.437 2.934 4.437z" fill="url(#prefix__paint6_radial)"/><path d="M50.426 32.112c-1.262 0-2.353 1.091-2.934 2.722.042-2.396 1.332-4.324 2.934-4.324 1.601 0 2.891 1.928 2.934 4.324-.581-1.616-1.673-2.722-2.934-2.722z" fill="url(#prefix__paint7_linear)"/><path d="M61.056 45.635a1.106 1.106 0 00-.709-.029A72.083 72.083 0 0140.49 48.37a72.546 72.546 0 01-19.858-2.764 1.102 1.102 0 00-.709.029c-.694.283-1.8 1.332-.34 5.343v.014c2.154 5.132 7.867 14.146 20.893 14.146 12.998 0 18.71-9.029 20.922-14.146 1.445-4.025.354-5.074-.34-5.357z" fill="url(#prefix__paint8_radial)"/><path d="M40.475 63.707c5.4 0 9.454-1.659 12.488-3.926-3.331-1.503-7.442-2.481-12.488-2.481-5.046 0-9.157.992-12.488 2.509 3.034 2.24 7.088 3.898 12.488 3.898z" fill="url(#prefix__paint9_radial)"/><path d="M60.645 45.55c-.043 0-.085 0-.142.014a72.295 72.295 0 01-20.042 2.82c-6.818 0-13.551-.95-20.043-2.82-.043-.015-.085-.015-.142-.015-.44.043-2.537.482-.737 5.443v.015c.88 2.07 2.339 4.776 4.621 7.257-2.14-2.537.496-3.94 5.188-3.374 4.692.567 11.113.581 11.113.581s6.407-.014 11.112-.58c4.692-.568 7.329.836 5.188 3.373 2.282-2.48 3.742-5.188 4.621-7.257v-.015c1.8-4.975-.297-5.414-.737-5.443z" fill="url(#prefix__paint10_linear)"/><path d="M57.03 52.523a4.187 4.187 0 003.303-3.7l.17-1.785a73.843 73.843 0 01-20.028 2.764 73.844 73.844 0 01-20.029-2.764l.17 1.786c.17 1.814 1.517 3.302 3.303 3.7a78.009 78.009 0 0016.556 1.757c5.585 0 11.141-.595 16.556-1.758z" fill="url(#prefix__paint11_radial)"/><defs><radialGradient id="prefix__paint0_radial" cx="0" cy="0" r="1" gradientUnits="userSpaceOnUse" gradientTransform="translate(34.479 28.125) scale(36.7641)"><stop stop-color="#FFDF30"/><stop offset="1" stop-color="#FFB82E"/></radialGradient><radialGradient id="prefix__paint1_radial" cx="0" cy="0" r="1" gradientUnits="userSpaceOnUse" gradientTransform="translate(34.479 28.125) scale(28.924)"><stop stop-color="#FFE95F"/><stop offset="1" stop-color="#FFBB47" stop-opacity="0"/></radialGradient><radialGradient id="prefix__paint3_radial" cx="0" cy="0" r="1" gradientUnits="userSpaceOnUse" gradientTransform="rotate(73.854 -8.576 37.298) scale(4.30589 2.78584)"><stop offset=".001" stop-color="#7A4400"/><stop offset="1" stop-color="#643800"/></radialGradient><radialGradient id="prefix__paint6_radial" cx="0" cy="0" r="1" gradientUnits="userSpaceOnUse" gradientTransform="rotate(73.854 1.373 50.538) scale(4.30589 2.78584)"><stop offset=".001" stop-color="#7A4400"/><stop offset="1" stop-color="#643800"/></radialGradient><radialGradient id="prefix__paint8_radial" cx="0" cy="0" r="1" gradientUnits="userSpaceOnUse" gradientTransform="translate(40.475 55.35) scale(16.7881)"><stop offset=".001" stop-color="#7A4400"/><stop offset="1" stop-color="#643800"/></radialGradient><radialGradient id="prefix__paint9_radial" cx="0" cy="0" r="1" gradientUnits="userSpaceOnUse" gradientTransform="matrix(13.9137 0 0 4.2061 40.727 61.255)"><stop offset=".248" stop-color="red"/><stop offset="1" stop-color="#C10000"/></radialGradient><radialGradient id="prefix__paint11_radial" cx="0" cy="0" r="1" gradientUnits="userSpaceOnUse" gradientTransform="translate(40.475 50.666) scale(36.8167)"><stop offset=".001" stop-color="#fff"/><stop offset="1" stop-color="#A8BBBD"/></radialGradient><linearGradient id="prefix__paint2_linear" x1="27.344" y1="26.728" x2="27.344" y2="23.517" gradientUnits="userSpaceOnUse"><stop offset=".001" stop-color="#3C2200"/><stop offset="1" stop-color="#7A4400"/></linearGradient><linearGradient id="prefix__paint4_linear" x1="30.525" y1="30.591" x2="30.525" y2="34.727" gradientUnits="userSpaceOnUse"><stop offset=".001" stop-color="#3C2200"/><stop offset="1" stop-color="#512D00"/></linearGradient><linearGradient id="prefix__paint5_linear" x1="53.606" y1="26.728" x2="53.606" y2="23.517" gradientUnits="userSpaceOnUse"><stop offset=".001" stop-color="#3C2200"/><stop offset="1" stop-color="#7A4400"/></linearGradient><linearGradient id="prefix__paint7_linear" x1="50.425" y1="30.591" x2="50.425" y2="34.727" gradientUnits="userSpaceOnUse"><stop offset=".001" stop-color="#3C2200"/><stop offset="1" stop-color="#512D00"/></linearGradient><linearGradient id="prefix__paint10_linear" x1="61.866" y1="51.898" x2="19.344" y2="51.898" gradientUnits="userSpaceOnUse"><stop offset=".001" stop-color="#3C2200"/><stop offset=".5" stop-color="#512D00"/><stop offset="1" stop-color="#3C2200"/></linearGradient></defs></svg>