<svg width="80" height="80" fill="none" xmlns="http://www.w3.org/2000/svg"><path d="M40 70.476c16.832 0 30.476-13.645 30.476-30.476S56.832 9.524 40 9.524C23.17 9.524 9.524 23.169 9.524 40S23.169 70.476 40 70.476z" fill="url(#prefix__paint0_radial)"/><path opacity=".5" d="M40 70.476c16.832 0 30.476-13.645 30.476-30.476S56.832 9.524 40 9.524C23.17 9.524 9.524 23.169 9.524 40S23.169 70.476 40 70.476z" fill="url(#prefix__paint1_radial)"/><path d="M33.295 24.21c0-1.22-1.314-1.982-3.6-1.982-1.924 0-6.171 1.067-9.085 4.82-.534.685.285 1.066.819.628 1.79-1.524 6.61-3.486 10.362-3.067 1.504.153 1.504-.4 1.504-.4z" fill="url(#prefix__paint2_linear)"/><path d="M46.705 24.21c0-1.22 1.314-1.982 3.6-1.982 1.924 0 6.171 1.067 9.086 4.82.533.685-.286 1.066-.82.628-1.79-1.524-6.609-3.486-10.361-3.067-1.505.153-1.505-.4-1.505-.4z" fill="url(#prefix__paint3_linear)"/><path opacity=".5" d="M15.295 46.038s-2.647-2.99-3.504-11.333c-.058-.629-.896-1.181-1.505-1.486.362-1.58.838-3.105 1.428-4.59a40.229 40.229 0 012.8-.4c4.534-.515 12-.534 15.467.514 4.82 1.448 6.552 3.467 9.486 3.467v1.58c-3.429 0-.572 5.924-5.295 11.181-3.772 4.21-16.496 4.286-18.877 1.067z" fill="url(#prefix__paint4_radial)"/><path opacity=".5" d="M64.705 46.038s2.648-2.99 3.505-11.333c.057-.629.895-1.181 1.504-1.486a31.292 31.292 0 00-1.428-4.59 40.229 40.229 0 00-2.8-.4c-4.534-.515-12-.534-15.467.514-4.819 1.448-6.552 3.467-9.486 3.467v1.58c3.429 0 .572 5.924 5.296 11.181 3.771 4.21 16.495 4.286 18.876 1.067z" fill="url(#prefix__paint5_radial)"/><path d="M53.029 32.82s5.314.532 6.8 4.551c.095.248.152.515.133.781 0 .534-.495 1.105-1.448.59-5.828-3.218-9.2-1.694-11.714-.647-.971.42-1.847-.571-1.543-1.447.077-.248.153-.515.286-.743 2.172-3.657 7.486-3.086 7.486-3.086z" fill="url(#prefix__paint6_radial)"/><path d="M52.914 34.076s4.324.438 7.029 3.753a2.002 2.002 0 00-.114-.458c-1.486-4.019-6.8-4.552-6.8-4.552s-5.315-.571-7.486 3.086a1.796 1.796 0 00-.19.438c3.219-2.724 7.561-2.267 7.561-2.267z" fill="url(#prefix__paint7_linear)"/><path d="M26.972 32.82s-5.315.532-6.8 4.551a1.827 1.827 0 00-.134.781c0 .534.496 1.105 1.448.59 5.828-3.218 9.2-1.694 11.714-.647.972.42 1.848-.571 1.543-1.447-.076-.248-.152-.515-.286-.743-2.171-3.657-7.485-3.086-7.485-3.086z" fill="url(#prefix__paint8_radial)"/><path d="M27.086 34.076s-4.324.438-7.029 3.753c.02-.153.057-.305.114-.458 1.486-4.019 6.8-4.552 6.8-4.552s5.315-.571 7.486 3.086c.076.133.152.285.19.438-3.218-2.724-7.561-2.267-7.561-2.267z" fill="url(#prefix__paint9_linear)"/><path d="M53.467 50.438a.811.811 0 00-.686.21c-3.276 3.066-8.324 4.723-12.133 4.723h-1.295c-3.81 0-8.858-1.657-12.134-4.723a.83.83 0 00-.685-.21.386.386 0 00-.267.572 15.678 15.678 0 0013.58 7.828h.344c5.619 0 10.78-2.99 13.58-7.828a.424.424 0 00-.304-.572z" fill="#643800"/><path d="M53.467 50.438a.811.811 0 00-.686.21c-3.276 3.066-8.324 4.723-12.133 4.723h-1.295c-3.81 0-8.858-1.657-12.134-4.723a.83.83 0 00-.685-.21.386.386 0 00-.267.572c.019.057.057.095.095.133.267-.153.553-.305.838.019 3.105 3.486 7.714 5.58 12.648 5.58H40.19c4.971 0 9.6-2.113 12.704-5.656.286-.324.553-.172.8 0 .02-.038.039-.057.058-.096.114-.21-.02-.495-.286-.552z" fill="url(#prefix__paint10_linear)"/><path d="M25.276 28.21c-3.886-.286-8.438-.648-9.333 2.38-.895 3.03-.305 7.6 1.771 11.01 2.077 3.41 10.305 3.22 13.277 1.41 3.961-2.4 4.304-6.458 4.419-8.915.133-3.257-4.153-5.466-10.134-5.885z" fill="url(#prefix__paint11_linear)"/><path d="M54.648 28.21c3.885-.286 8.438-.648 9.333 2.38.895 3.03.305 7.6-1.772 11.01-2.076 3.41-10.304 3.22-13.276 1.41-3.962-2.4-4.304-6.458-4.419-8.915-.133-3.257 4.153-5.466 10.134-5.885z" fill="url(#prefix__paint12_linear)"/><path d="M69.22 27.124s-.972-.381-4.306-.762c-4.533-.514-12-.533-15.466.514-4.82 1.448-6.553 3.467-9.486 3.467-2.933 0-4.667-2.02-9.505-3.486-3.447-1.047-10.914-1.028-15.466-.514-3.315.38-4.305.762-4.305.762 0 .324 0 .705.019 1.124 0 0 2.057.343 2.076.533 0 .095-2.019.286-2.019.286.038.343.095.704.171 1.085l.8.381a1.909 1.909 0 011.105 1.581c.857 8.343 3.505 11.715 3.505 11.715 2.38 3.2 13.58 4.285 17.352.076 4.724-5.276 2.82-10.038 6.248-10.038 3.428 0 1.524 4.78 6.248 10.038 3.771 4.21 14.971 3.124 17.352-.076 0 0 2.648-3.372 3.505-11.715.076-.685.495-1.295 1.105-1.58l.8-.382c.076-.38.133-.742.17-1.085 0 0-1.885-.19-1.866-.286.02-.19 1.943-.533 1.943-.533.038-.42.038-.8.02-1.105zM30.99 42.99c-2.97 1.81-11.18 2-13.276-1.409-2.076-3.39-2.666-7.98-1.771-11.01.895-3.028 5.448-2.647 9.333-2.38 5.981.438 10.267 2.647 10.134 5.885-.115 2.457-.457 6.514-4.42 8.914zm31.2-1.409c-2.076 3.39-10.304 3.22-13.276 1.41-3.962-2.4-4.304-6.458-4.419-8.915-.133-3.238 4.153-5.447 10.134-5.886 3.885-.285 8.438-.647 9.333 2.381.895 3.048.324 7.62-1.771 11.01z" fill="url(#prefix__paint13_linear)"/><path d="M25.276 28.21c-3.886-.286-8.438-.648-9.333 2.38-.895 3.03-.305 7.6 1.771 11.01 2.077 3.41 10.305 3.22 13.277 1.41 3.961-2.4 4.304-6.458 4.419-8.915.133-3.257-4.153-5.466-10.134-5.885z" fill="url(#prefix__paint14_linear)"/><path d="M30.99 42.99c-2.97 1.81-11.18 2-13.276-1.409-1.752-2.857-2.438-6.552-2.076-9.447 0 .019-.019.019-.019.038-.324 3.123.248 6.8 1.962 9.828 2.114 3.734 10.476 3.524 13.505 1.543 3.105-2.038 3.905-4.933 4.152-7.486-.305 2.324-1.238 5.105-4.247 6.934z" fill="url(#prefix__paint15_linear)"/><path opacity=".75" d="M41.848 33.847a8.26 8.26 0 01.685-2.876l.629-1.428c-1.048.476-2.038.8-3.2.8-1.162 0-2.152-.324-3.2-.8l.629 1.428c.4.915.628 1.886.685 2.876l.057.915c.381-.59.915-.934 1.829-.934.914 0 1.448.343 1.828.934l.058-.915z" fill="url(#prefix__paint16_radial)"/><path opacity=".75" d="M15.943 30.99c.895-3.028 5.448-2.647 9.333-2.38 5.772.419 9.962 2.476 10.134 5.543v-.077c.133-3.238-4.153-5.447-10.134-5.885-3.885-.286-8.438-.648-9.333 2.38-.286.991-.419 2.134-.4 3.353.02-1.067.152-2.057.4-2.933z" fill="#000"/><path d="M10.705 28.229c.019.247.038.533.076.819h3.029a.813.813 0 00.819-.82h-3.924z" fill="url(#prefix__paint17_linear)"/><path d="M54.648 28.21c3.885-.286 8.438-.648 9.333 2.38.895 3.03.305 7.6-1.772 11.01-2.076 3.41-10.304 3.22-13.276 1.41-3.962-2.4-4.304-6.458-4.419-8.915-.133-3.257 4.153-5.466 10.134-5.885z" fill="url(#prefix__paint18_linear)"/><path d="M48.914 42.99c2.972 1.81 11.181 2 13.277-1.409 1.752-2.857 2.438-6.552 2.076-9.447 0 .019.019.019.019.038.324 3.123-.248 6.8-1.962 9.828-2.114 3.734-10.476 3.524-13.505 1.543-3.105-2.038-3.905-4.933-4.152-7.486.324 2.324 1.238 5.105 4.247 6.934z" fill="url(#prefix__paint19_linear)"/><path opacity=".75" d="M63.962 30.99c-.895-3.028-5.448-2.647-9.334-2.38-5.77.419-9.961 2.476-10.133 5.543v-.077c-.133-3.238 4.153-5.447 10.134-5.885 3.885-.286 8.438-.648 9.333 2.38.286.991.419 2.134.4 3.353 0-1.067-.133-2.057-.4-2.933z" fill="#000"/><path d="M69.22 28.229c-.02.247-.039.533-.077.819h-3.028a.813.813 0 01-.82-.82h3.924z" fill="url(#prefix__paint20_linear)"/><path opacity=".5" d="M54.648 28.21c3.885-.286 8.438-.648 9.333 2.38.895 3.03.305 7.6-1.771 11.01-2.077 3.41-10.305 3.22-13.276 1.41-3.962-2.4-4.305-6.458-4.42-8.915-.133-3.257 4.153-5.466 10.134-5.885z" fill="url(#prefix__paint21_radial)"/><path opacity=".5" d="M25.295 28.895c-3.733-.267-8.095-.628-8.952 2.286-.857 2.914-.286 7.295 1.714 10.571s9.886 3.086 12.743 1.353c3.79-2.305 4.134-6.21 4.229-8.553.114-3.124-4.02-5.238-9.734-5.657z" fill="url(#prefix__paint22_radial)"/><path d="M37.467 30.971l-.629-1.428c-1.6-.724-3.39-1.81-6.305-2.686-3.447-1.047-10.914-1.028-15.466-.514-3.315.38-4.305.762-4.305.762 0 .324 0 .705.019 1.124 7.086-.61 15.657-2.02 25.752 2.628.267.134.61.172.953.153 0-.02-.02-.039-.02-.039z" fill="url(#prefix__paint23_radial)"/><path d="M42.61 30.971l.628-1.428c1.6-.724 3.39-1.81 6.305-2.686 3.448-1.047 10.914-1.028 15.467-.514 3.314.38 4.304.762 4.304.762.02.324.039.686.02 1.105-7.086-.61-15.658-2.02-25.753 2.628-.267.133-.61.172-.952.152-.02 0-.02-.018-.02-.018z" fill="url(#prefix__paint24_radial)"/><defs><linearGradient id="prefix__paint2_linear" x1="26.869" y1="26.252" x2="26.869" y2="23.041" gradientUnits="userSpaceOnUse"><stop offset=".001" stop-color="#3C2200"/><stop offset="1" stop-color="#7A4400"/></linearGradient><linearGradient id="prefix__paint3_linear" x1="53.131" y1="26.252" x2="53.131" y2="23.041" gradientUnits="userSpaceOnUse"><stop offset=".001" stop-color="#3C2200"/><stop offset="1" stop-color="#7A4400"/></linearGradient><linearGradient id="prefix__paint7_linear" x1="53.214" y1="31.141" x2="52.856" y2="34.835" gradientUnits="userSpaceOnUse"><stop offset=".001" stop-color="#3C2200"/><stop offset="1" stop-color="#512D00"/></linearGradient><linearGradient id="prefix__paint9_linear" x1="26.809" y1="31.143" x2="27.167" y2="34.837" gradientUnits="userSpaceOnUse"><stop offset=".001" stop-color="#3C2200"/><stop offset="1" stop-color="#512D00"/></linearGradient><linearGradient id="prefix__paint10_linear" x1="40" y1="52.592" x2="40" y2="57.142" gradientUnits="userSpaceOnUse"><stop offset=".001" stop-color="#3C2200"/><stop offset="1" stop-color="#512D00"/></linearGradient><linearGradient id="prefix__paint11_linear" x1="25.477" y1="61.784" x2="25.477" y2="33.592" gradientUnits="userSpaceOnUse"><stop stop-color="#8800C7"/><stop offset="1" stop-color="#7000A3" stop-opacity="0"/></linearGradient><linearGradient id="prefix__paint12_linear" x1="54.441" y1="61.784" x2="54.441" y2="33.592" gradientUnits="userSpaceOnUse"><stop stop-color="#8800C7"/><stop offset="1" stop-color="#7000A3" stop-opacity="0"/></linearGradient><linearGradient id="prefix__paint13_linear" x1="39.959" y1="37.006" x2="39.959" y2="15.869" gradientUnits="userSpaceOnUse"><stop stop-color="#242424"/><stop offset="1" stop-color="#8EA5A8"/></linearGradient><linearGradient id="prefix__paint14_linear" x1="14.843" y1="18.092" x2="36.198" y2="53.036" gradientUnits="userSpaceOnUse"><stop/><stop offset="1" stop-opacity=".5"/></linearGradient><linearGradient id="prefix__paint15_linear" x1="25.388" y1="36.496" x2="25.388" y2="52.651" gradientUnits="userSpaceOnUse"><stop/><stop offset="1" stop-color="#8EA5A8"/></linearGradient><linearGradient id="prefix__paint17_linear" x1="14.796" y1="28.628" x2="11.058" y2="28.628" gradientUnits="userSpaceOnUse"><stop stop-color="#fff"/><stop offset="1" stop-color="#FFBF00"/></linearGradient><linearGradient id="prefix__paint18_linear" x1="43.171" y1="17.147" x2="67.284" y2="54.032" gradientUnits="userSpaceOnUse"><stop/><stop offset="1" stop-opacity=".5"/></linearGradient><linearGradient id="prefix__paint19_linear" x1="54.53" y1="36.496" x2="54.53" y2="52.651" gradientUnits="userSpaceOnUse"><stop/><stop offset="1" stop-color="#8EA5A8"/></linearGradient><linearGradient id="prefix__paint20_linear" x1="65.122" y1="28.628" x2="68.86" y2="28.628" gradientUnits="userSpaceOnUse"><stop stop-color="#fff"/><stop offset="1" stop-color="#FFBF00"/></linearGradient><radialGradient id="prefix__paint0_radial" cx="0" cy="0" r="1" gradientUnits="userSpaceOnUse" gradientTransform="translate(34.004 27.649) scale(36.7656)"><stop stop-color="#FFE030"/><stop offset="1" stop-color="#FFB92E"/></radialGradient><radialGradient id="prefix__paint1_radial" cx="0" cy="0" r="1" gradientUnits="userSpaceOnUse" gradientTransform="translate(34.004 27.649) scale(28.9251)"><stop stop-color="#FFEA5F"/><stop offset="1" stop-color="#FFBC47" stop-opacity="0"/></radialGradient><radialGradient id="prefix__paint4_radial" cx="0" cy="0" r="1" gradientUnits="userSpaceOnUse" gradientTransform="rotate(180 6.674 16.9) scale(30.7625)"><stop stop-color="#7A4400" stop-opacity=".5"/><stop offset=".583" stop-color="#894D00" stop-opacity=".207"/><stop offset=".995" stop-color="#975500" stop-opacity="0"/></radialGradient><radialGradient id="prefix__paint5_radial" cx="0" cy="0" r="1" gradientUnits="userSpaceOnUse" gradientTransform="translate(66.653 33.798) scale(30.7625)"><stop stop-color="#7A4400" stop-opacity=".5"/><stop offset=".583" stop-color="#894D00" stop-opacity=".207"/><stop offset=".995" stop-color="#975500" stop-opacity="0"/></radialGradient><radialGradient id="prefix__paint6_radial" cx="0" cy="0" r="1" gradientUnits="userSpaceOnUse" gradientTransform="matrix(5.71405 .58726 -.28333 2.75684 52.74 35.82)"><stop offset=".001" stop-color="#7A4400"/><stop offset="1" stop-color="#643800"/></radialGradient><radialGradient id="prefix__paint8_radial" cx="0" cy="0" r="1" gradientUnits="userSpaceOnUse" gradientTransform="matrix(-5.71404 .58726 -.28334 -2.75684 27.302 35.819)"><stop offset=".001" stop-color="#7A4400"/><stop offset="1" stop-color="#643800"/></radialGradient><radialGradient id="prefix__paint16_radial" cx="0" cy="0" r="1" gradientUnits="userSpaceOnUse" gradientTransform="matrix(3.59946 0 0 2.19967 39.923 31.543)"><stop offset=".016" stop-color="#8EA5A8" stop-opacity=".25"/><stop offset="1" stop-color="#8EA5A8" stop-opacity="0"/></radialGradient><radialGradient id="prefix__paint21_radial" cx="0" cy="0" r="1" gradientUnits="userSpaceOnUse" gradientTransform="matrix(-10.5203 0 0 -3.6627 54.776 32.944)"><stop stop-color="#fff" stop-opacity=".24"/><stop offset="1" stop-color="#fff" stop-opacity="0"/></radialGradient><radialGradient id="prefix__paint22_radial" cx="0" cy="0" r="1" gradientUnits="userSpaceOnUse" gradientTransform="matrix(10.0886 0 0 3.51211 25.77 33.454)"><stop stop-color="#fff" stop-opacity=".24"/><stop offset="1" stop-color="#fff" stop-opacity="0"/></radialGradient><radialGradient id="prefix__paint23_radial" cx="0" cy="0" r="1" gradientUnits="userSpaceOnUse" gradientTransform="matrix(60.1324 0 0 35.7548 21.956 61.246)"><stop offset=".965" stop-color="#8EA5A8" stop-opacity="0"/><stop offset="1" stop-color="#8EA5A8"/></radialGradient><radialGradient id="prefix__paint24_radial" cx="0" cy="0" r="1" gradientUnits="userSpaceOnUse" gradientTransform="matrix(-60.1324 0 0 -35.7547 58.124 61.246)"><stop offset=".965" stop-color="#8EA5A8" stop-opacity="0"/><stop offset="1" stop-color="#8EA5A8"/></radialGradient></defs></svg>